<svg width="28" height="21" viewBox="0 0 28 21" fill="none" xmlns="http://www.w3.org/2000/svg">
<path d="M26.3426 9.11596C26.9746 9.94263 26.9746 11.0586 26.3426 11.884C24.3519 14.4826 19.5759 19.8333 13.9999 19.8333C8.42393 19.8333 3.64793 14.4826 1.65727 11.884C1.34978 11.4881 1.18286 11.0012 1.18286 10.5C1.18286 9.99873 1.34978 9.51178 1.65727 9.11596C3.64793 6.51729 8.42393 1.16663 13.9999 1.16663C19.5759 1.16663 24.3519 6.51729 26.3426 9.11596V9.11596Z" stroke="black" stroke-width="2" stroke-linecap="round" stroke-linejoin="round"/>
<path d="M14 14.5C16.2091 14.5 18 12.7091 18 10.5C18 8.29086 16.2091 6.5 14 6.5C11.7909 6.5 10 8.29086 10 10.5C10 12.7091 11.7909 14.5 14 14.5Z" stroke="black" stroke-width="2" stroke-linecap="round" stroke-linejoin="round"/>
</svg>
