<svg width="19" height="15" viewBox="0 0 19 15" fill="none" xmlns="http://www.w3.org/2000/svg">
<path d="M6.25504 14.9125C12.9075 14.9125 16.545 9.40002 16.545 4.62252C16.545 4.46502 16.545 4.30752 16.5375 4.15752C17.2425 3.64752 17.8575 3.01002 18.345 2.28252C17.7 2.56752 17.0025 2.76252 16.2675 2.85252C17.0175 2.40252 17.5875 1.69752 17.8575 0.850024C17.16 1.26252 16.3875 1.56252 15.5625 1.72752C14.9025 1.02252 13.965 0.587524 12.9225 0.587524C10.9275 0.587524 9.30754 2.20752 9.30754 4.20252C9.30754 4.48752 9.33754 4.76502 9.40504 5.02752C6.39754 4.87752 3.73504 3.43752 1.95004 1.24752C1.64254 1.78002 1.46254 2.40252 1.46254 3.06252C1.46254 4.31502 2.10004 5.42502 3.07504 6.07002C2.48254 6.05502 1.92754 5.89002 1.44004 5.62002C1.44004 5.63502 1.44004 5.65002 1.44004 5.66502C1.44004 7.42002 2.68504 8.87502 4.34254 9.21252C4.04254 9.29502 3.72004 9.34002 3.39004 9.34002C3.15754 9.34002 2.93254 9.31752 2.70754 9.27252C3.16504 10.7125 4.50004 11.755 6.08254 11.785C4.84504 12.7525 3.28504 13.33 1.59004 13.33C1.29754 13.33 1.01254 13.315 0.727539 13.2775C2.31004 14.3125 4.21504 14.9125 6.25504 14.9125Z" fill="white"/>
</svg>
